<svg xmlns="http://www.w3.org/2000/svg" width="79.8px" height="90.1px" viewBox="0 0 79.8 90.1">
<path fill="rgba(255, 255, 255, .5)" d="M63.1,1.7C60.2,0.6,57.1,0,54,0c-9.4,0-18,5.2-22.5,13.2c-0.8-0.1-1.6-0.1-2.4-0.1c-12,0-22.9,7.5-27.2,18.8
    c-4.3,11.4-1,23.8,7.4,31.6c2.3,10.8,9.8,20.2,20.9,24.4c3.8,1.5,7.8,2.2,11.9,2.2c13.8,0,26.4-8.7,31.3-21.6
    c3.2-8.4,2.7-17.3-0.5-24.9c2.3-2.4,4.1-5.3,5.4-8.5C83.2,21.7,76.4,6.7,63.1,1.7z M55.9,50.7c-0.6,0-1.3,0.1-1.9,0.1
    c-3,0-6-0.5-8.8-1.6c-6.2-2.4-11.1-7-13.9-13.1c-1.3-3-2.1-6.1-2.2-9.2c4-1.8,8.4-2.7,12.9-2.7c3.3,0,6.6,0.5,9.8,1.5
    C56.9,32.6,58.6,41.9,55.9,50.7z M53.3,26.1c0.1,0,0.2,0.1,0.2,0.1c8.4,3.2,14.7,9.5,18.1,17.1c-3.9,4-9.1,6.6-14.7,7.2
    C59.5,42,57.9,33.1,53.3,26.1z M42,23.1c-4.5,0-8.9,0.9-12.9,2.6c0-3,0.5-5.9,1.6-8.8c0.4-1,0.8-1.9,1.3-2.8c2.4,0.3,4.8,0.8,7,1.7
    c4.7,1.8,8.7,4.8,11.7,8.4C47.9,23.5,45,23.1,42,23.1z M72.3,42.6c-3.5-7.7-10-14-18.5-17.3c-0.5-0.2-1-0.4-1.5-0.5
    c-3.2-4.3-7.6-7.8-13-9.8c-2.2-0.8-4.5-1.4-6.9-1.7C36.9,5.8,45.1,1,54,1c3,0,6,0.5,8.8,1.6c12.8,4.9,19.3,19.3,14.4,32.1
    C76.1,37.6,74.4,40.3,72.3,42.6z M9,61.8C1.6,54.2-1.2,42.8,2.8,32.2C6.9,21.3,17.5,14,29.1,14c0.6,0,1.3,0,1.9,0.1
    c-0.4,0.8-0.8,1.7-1.2,2.6c-1.2,3.1-1.7,6.3-1.7,9.5c-7.8,3.6-14.2,10.2-17.4,18.5C8.6,50.4,8.1,56.2,9,61.8z M11.6,45.1
    c3-8,9.1-14.3,16.5-17.8c0.2,3.1,0.9,6.2,2.2,9.2c2.8,6.3,7.9,11.1,14.4,13.6c3,1.1,6,1.7,9.2,1.7c0.5,0,1.1,0,1.6-0.1
    c-0.1,0.2-0.1,0.3-0.2,0.5C51.2,63,40.7,70.3,29.1,70.3c-3.4,0-6.8-0.6-10-1.8c-3.4-1.3-6.4-3.2-8.9-5.5C9,57.2,9.4,51,11.6,45.1z
     M72.4,68.1c-4.8,12.5-17,21-30.4,21c-3.9,0-7.8-0.7-11.5-2.1c-10.3-3.9-17.4-12.5-20-22.4c2.4,2,5.2,3.6,8.2,4.8
    c3.3,1.3,6.8,1.9,10.3,1.9c12,0,22.9-7.5,27.2-18.8c0.1-0.3,0.2-0.6,0.3-0.9c5.9-0.6,11.3-3.2,15.5-7.3
    C75.1,51.6,75.4,60.1,72.4,68.1z"/>
</svg>