<?xml version="1.0" encoding="utf-8"?>
<!-- Generator: Adobe Illustrator 17.1.0, SVG Export Plug-In . SVG Version: 6.00 Build 0)  -->
<!DOCTYPE svg PUBLIC "-//W3C//DTD SVG 1.1//EN" "http://www.w3.org/Graphics/SVG/1.1/DTD/svg11.dtd">
<svg version="1.1" id="Layer_1" xmlns="http://www.w3.org/2000/svg" xmlns:xlink="http://www.w3.org/1999/xlink" x="0px" y="0px"
	 viewBox="0 0 300 55.4" style="enable-background:new 0 0 300 55.4;" xml:space="preserve">
<style type="text/css">
	.st0{fill:#DFB525;}
	.st1{fill:none;}
	.st2{fill:#E7EAEC;}
	.st3{fill:#E2D46A;}
	.st4{fill:#FCD843;enable-background:new    ;}
	.st5{fill:#F6C41F;enable-background:new    ;}
	.st6{fill:#E3C73C;}
	.st7{fill:#F9E573;enable-background:new    ;}
	.st8{fill:#D3B245;}
	.st9{fill:#FFFFFF;}
	.st10{fill:#E7EDEE;}
</style>
<path class="st0" d="M131.3,14.8c-2.8,0-5.5,0.6-8,1.7c0.1,1.9,0.5,3.9,1.3,5.7c1.7,3.7,4.7,6.6,8.5,8c1.7,0.7,3.6,1,5.4,1
	c0.4,0,0.8,0,1.2,0c1.7-5.4,0.6-11.1-2.5-15.4C135.4,15.1,133.4,14.8,131.3,14.8z"/>
<path class="st1" d="M144.1,1.6c-1.7-0.7-3.6-1-5.4-1c-5.5,0-10.5,3-13.2,7.6c1.4,0.2,2.9,0.5,4.2,1c3.3,1.3,6,3.4,8,6
	c0.3,0.1,0.6,0.2,0.9,0.3c5.2,2,9.2,5.9,11.4,10.6c1.3-1.4,2.3-3,3-4.9C156,13.4,152,4.6,144.1,1.6z"/>
<path class="st2" d="M149.8,27.2c-2.5,2.5-5.9,4.1-9.5,4.5c-0.1,0.2-0.1,0.4-0.2,0.6c-2.6,6.9-9.3,11.6-16.7,11.6
	c-2.2,0-4.3-0.4-6.3-1.2c-1.9-0.7-3.6-1.7-5.1-3c1.6,6.1,6,11.4,12.3,13.8c2.3,0.9,4.7,1.3,7.1,1.3c8.3,0,15.8-5.2,18.7-12.9
	C151.9,37,151.7,31.8,149.8,27.2z"/>
<path class="st3" d="M140.5,31.1c3.5-0.4,6.7-2,9.1-4.5c-2.1-4.7-6-8.6-11.1-10.5c0,0-0.1,0-0.1,0C141.1,20.4,142.1,25.9,140.5,31.1
	z"/>
<path class="st4" d="M112.1,27.5c1.9-5.1,5.9-9.2,10.7-11.4c0-2,0.3-4,1-5.9c0.2-0.5,0.4-1.1,0.7-1.6c-0.4,0-0.8-0.1-1.2-0.1
	c-7.1,0-13.6,4.5-16.2,11.2c-2.5,6.5-0.7,13.6,3.8,18.2C110.4,34.6,110.7,31,112.1,27.5z"/>
<path class="st5" d="M123.4,15.9c2.5-1,5.2-1.6,8-1.6c1.8,0,3.6,0.2,5.4,0.7c-1.9-2.3-4.3-4.1-7.2-5.2c-1.4-0.5-2.9-0.9-4.3-1
	c-0.3,0.6-0.6,1.1-0.8,1.7C123.7,12.2,123.4,14.1,123.4,15.9z"/>
<path class="st6" d="M117.2,42.1c2,0.7,4,1.1,6.1,1.1c7.1,0,13.6-4.5,16.2-11.2c0-0.1,0.1-0.2,0.1-0.3c-0.3,0-0.6,0-1,0
	c-1.9,0-3.8-0.4-5.6-1c-4-1.5-7.1-4.5-8.9-8.3c-0.8-1.8-1.3-3.7-1.4-5.7c-4.6,2.2-8.3,6.1-10.2,11c-1.4,3.6-1.6,7.4-0.9,11
	C113.3,40.2,115.1,41.3,117.2,42.1z"/>
<path class="st1" d="M123.3,43.3c7.1,0,13.6-4.5,16.2-11.2c0-0.1,0.1-0.2,0.1-0.3c-0.3,0-0.6,0-1,0c-1.9,0-3.8-0.4-5.6-1
	c-4-1.5-7.1-4.5-8.9-8.3c-0.8-1.8-1.3-3.7-1.4-5.7c-4.6,2.2-8.3,6.1-10.2,11c-1.4,3.6-1.6,7.4-0.9,11c1.6,1.4,3.4,2.6,5.5,3.4
	C119.2,42.9,121.3,43.3,123.3,43.3z"/>
<path class="st1" d="M122.8,16.1c0-2,0.3-4,1-5.9c0.2-0.5,0.4-1.1,0.7-1.6c-0.4,0-0.8-0.1-1.2-0.1c-7.1,0-13.6,4.5-16.2,11.2
	c-2.5,6.5-0.7,13.6,3.8,18.2c-0.5-3.4-0.2-7,1.1-10.5C114,22.4,117.9,18.4,122.8,16.1z"/>
<path class="st1" d="M140.3,31.7c-0.1,0.2-0.1,0.4-0.2,0.6c-2.6,6.9-9.3,11.6-16.7,11.6c-2.2,0-4.3-0.4-6.3-1.2
	c-1.9-0.7-3.6-1.7-5.1-3c1.6,6.1,6,11.4,12.3,13.8c2.3,0.9,4.7,1.3,7.1,1.3c8.3,0,15.8-5.2,18.7-12.9c1.9-4.9,1.6-10.2-0.2-14.7
	C147.2,29.7,143.9,31.3,140.3,31.7z"/>
<path class="st7" d="M144.1,1.6c-1.7-0.7-3.6-1-5.4-1c-5.5,0-10.5,3-13.2,7.6c1.4,0.2,2.9,0.5,4.2,1c3.3,1.3,6,3.4,8,6
	c0.3,0.1,0.6,0.2,0.9,0.3c5.2,2,9.2,5.9,11.4,10.6c1.3-1.4,2.3-3,3-4.9C156,13.4,152,4.6,144.1,1.6z"/>
<path class="st8" d="M144.3,1c-1.8-0.7-3.7-1-5.6-1c-5.8,0-11.1,3.2-13.9,8.1c-0.5,0-1-0.1-1.5-0.1c-7.4,0-14.1,4.6-16.7,11.6
	c-2.7,7-0.6,14.6,4.5,19.4c1.4,6.6,6,12.5,12.8,15c2.4,0.9,4.8,1.3,7.3,1.3c8.5,0,16.2-5.3,19.3-13.3c2-5.2,1.7-10.6-0.3-15.4
	c1.4-1.5,2.5-3.3,3.3-5.2C156.6,13.3,152.5,4.1,144.3,1z M139.8,31.2c-0.4,0-0.8,0-1.2,0c-1.9,0-3.7-0.3-5.4-1
	c-3.8-1.5-6.9-4.3-8.5-8c-0.8-1.8-1.3-3.7-1.3-5.7c2.5-1.1,5.2-1.7,8-1.7c2,0,4.1,0.3,6,0.9C140.5,20.1,141.6,25.8,139.8,31.2z
	 M138.3,16.1c0,0,0.1,0,0.1,0c5.2,2,9,5.8,11.1,10.5c-2.4,2.4-5.6,4-9.1,4.5C142.1,25.9,141.1,20.4,138.3,16.1z M131.3,14.2
	c-2.8,0-5.5,0.6-8,1.6c0-1.8,0.3-3.6,1-5.4c0.2-0.6,0.5-1.2,0.8-1.7c1.5,0.2,2.9,0.5,4.3,1c2.9,1.1,5.4,2.9,7.2,5.2
	C134.9,14.5,133.1,14.2,131.3,14.2z M150,26.2c-2.2-4.7-6.1-8.6-11.4-10.6c-0.3-0.1-0.6-0.2-0.9-0.3c-2-2.6-4.7-4.8-8-6
	c-1.4-0.5-2.8-0.9-4.2-1c2.7-4.6,7.8-7.6,13.2-7.6c1.9,0,3.7,0.3,5.4,1c7.9,3,11.9,11.9,8.9,19.7C152.3,23.2,151.3,24.8,150,26.2z
	 M111,38.1c-4.6-4.7-6.3-11.7-3.8-18.2c2.5-6.7,9-11.2,16.2-11.2c0.4,0,0.8,0,1.2,0.1c-0.3,0.5-0.5,1-0.7,1.6
	c-0.7,1.9-1.1,3.9-1,5.9c-4.8,2.2-8.8,6.3-10.7,11.4C110.7,31,110.4,34.6,111,38.1z M112.6,27.7c1.9-4.9,5.6-8.8,10.2-11
	c0.1,1.9,0.6,3.8,1.4,5.7c1.7,3.9,4.9,6.8,8.9,8.3c1.8,0.7,3.7,1,5.6,1c0.3,0,0.6,0,1,0c0,0.1-0.1,0.2-0.1,0.3
	c-2.5,6.7-9,11.2-16.2,11.2c-2.1,0-4.2-0.4-6.1-1.1c-2.1-0.8-3.9-2-5.5-3.4C111,35.2,111.2,31.4,112.6,27.7z M150,41.9
	c-2.9,7.7-10.4,12.9-18.7,12.9c-2.4,0-4.8-0.4-7.1-1.3c-6.3-2.4-10.7-7.7-12.3-13.8c1.5,1.2,3.2,2.2,5.1,3c2,0.8,4.2,1.2,6.3,1.2
	c7.4,0,14.1-4.6,16.7-11.6c0.1-0.2,0.1-0.4,0.2-0.6c3.6-0.4,7-2,9.5-4.5C151.7,31.8,151.9,37,150,41.9z"/>
<g>
	<path class="st9" d="M11.9,23.3H8.6v-0.7c0-1.5-0.6-2.8-2.3-2.8c-1.8,0-2.2,1.5-2.2,3c0,1.8,0.2,2.4,1.9,3.1l2.5,1
		c2.9,1.1,3.5,2.9,3.5,6.3c0,3.9-1.4,6.8-5.7,6.8c-3.2,0-5.6-2.4-5.6-5.5v-1.2h3.3v1c0,1.2,0.6,2.4,2.3,2.4c2.2,0,2.4-1.3,2.4-3.4
		c0-2.5-0.3-2.9-1.9-3.5l-2.4-1c-2.9-1.2-3.6-3-3.6-5.9c0-3.5,1.9-6.3,5.7-6.3c3.3,0,5.5,2.7,5.5,5.2V23.3z"/>
	<path class="st9" d="M25,34.6c0,3-2.4,5.4-5.3,5.4c-2.9,0-5.3-2.4-5.3-5.4V16.7h3.3v17.6c0,1.6,0.9,2.4,2,2.4c1.2,0,2-0.8,2-2.4
		V16.7H25V34.6z"/>
	<path class="st9" d="M28,16.7h3.2l5,13.9h0.1V16.7h3.3v23.1h-3.1l-5.1-13.9h-0.1v13.9H28V16.7z"/>
	<path class="st9" d="M42.5,16.7h3.3v19.8h6.5v3.3h-9.9V16.7z"/>
	<path class="st9" d="M54.6,16.7h3.3v23.1h-3.3V16.7z"/>
	<path class="st9" d="M60.9,22.1c0-3.8,2.9-5.6,5.5-5.6c2.7,0,5.5,1.9,5.5,5.6v1.2h-3.3v-1.2c0-1.6-1-2.3-2.2-2.3
		c-1.2,0-2.2,0.7-2.2,2.3v12.2c0,1.6,1,2.3,2.2,2.3c1.2,0,2.2-0.7,2.2-2.3V30h-2.6V27H72v7.3c0,3.8-2.9,5.6-5.5,5.6
		c-2.7,0-5.5-1.9-5.5-5.6V22.1z"/>
	<path class="st9" d="M74.9,16.7h3.3v9.9h4.1v-9.9h3.3v23.1h-3.3V29.5h-4.1v10.3h-3.3V16.7z"/>
	<path class="st9" d="M90.9,19.8h-3.8v-3.1h11v3.1h-3.8v20h-3.3V19.8z"/>
</g>
<g>
	<path class="st10" d="M165.3,26.7h6.2V29h-6.2v10.8h-2.6V16.6h10.2v2.3h-7.6V26.7z"/>
	<path class="st10" d="M187.4,28.1c0,3.8-0.6,7.1-2,9.5c-1.6,2.6-4,2.6-4.8,2.6c-4.6,0-6.9-3.8-6.9-11.8c0-5.6,1.2-12.2,6.8-12.2
		C185.8,16.2,187.4,21.5,187.4,28.1z M176.4,27.9c0,7.8,1.6,10.1,4.1,10.1c3.1,0,4.1-3.6,4.1-9.7c0-6.5-1.1-9.8-4.1-9.8
		C177.7,18.5,176.4,21.5,176.4,27.9z"/>
	<path class="st10" d="M193.3,16.6v16.2c0,2.8,0.1,5.2,3.2,5.2c2.6,0,3.4-1.4,3.4-5V16.6h2.5v16.2c0,2.5,0,7.4-6,7.4
		c-5.7,0-5.8-4-5.8-7.4V16.6H193.3z"/>
	<path class="st10" d="M206.4,16.6h3.2l7.3,18.1l-0.1-18.1h2.4v23.2h-2.6L208.7,20l0.1,19.8h-2.4V16.6z"/>
	<path class="st10" d="M223.6,16.6h3.8c2.6,0,4.4,0.4,5.9,1.7c2,1.7,3.2,5.7,3.2,9.7c0,4.3-1.4,8.1-3.1,9.8
		c-1.8,1.9-4.6,1.9-5.6,1.9h-4.2V16.6z M226.2,37.6h1.8c2.7,0,3.7-1.5,4-1.8c0.9-1.4,1.7-3.9,1.7-7.5c0-3.4-0.6-5.1-1-6.3
		c-1.1-2.5-3.1-3-4.8-3h-1.6V37.6z"/>
	<path class="st10" d="M245.2,16.6l5.2,23.2h-2.7l-1.5-6.7H241l-1.4,6.7h-2.5l5.3-23.2H245.2z M245.8,30.9l-2.1-11.6l-2.2,11.6
		H245.8z"/>
	<path class="st10" d="M253.6,18.9h-4.5v-2.3h11.6v2.3h-4.5v20.9h-2.6V18.9z"/>
	<path class="st10" d="M262.7,16.6h2.6v23.2h-2.6V16.6z"/>
	<path class="st10" d="M282.7,28.1c0,3.8-0.6,7.1-2,9.5c-1.6,2.6-4,2.6-4.8,2.6c-4.6,0-6.9-3.8-6.9-11.8c0-5.6,1.2-12.2,6.8-12.2
		C281.1,16.2,282.7,21.5,282.7,28.1z M271.8,27.9c0,7.8,1.6,10.1,4.1,10.1c3.1,0,4.1-3.6,4.1-9.7c0-6.5-1.1-9.8-4.1-9.8
		C273.1,18.5,271.8,21.5,271.8,27.9z"/>
	<path class="st10" d="M286.4,16.6h3.2l7.3,18.1l-0.1-18.1h2.4v23.2h-2.6L288.6,20l0.1,19.8h-2.4V16.6z"/>
</g>
</svg>
